# xmcd
#
# Track frame offsets:
#	150
#	14211
#	33199
#	51106
#	68072
#	80201
#	97581
#	109105
#	125840
#	140927
#	150824
#
# Disc length: 2307 seconds
#
# Revision: 1
# Processed by: cddbd v1.5.2PL0 Copyright (c) Steve Scherf et al.
# Submitted via: audiograbber 1.83.01
#
DISCID=9109010b
DTITLE=The Flying Burrito Bros - The Gilded Palace Of Sin
DYEAR=1900
DGENRE=
TTITLE0=Chrstine's Tune
TTITLE1=Sin City
TTITLE2=Do Right Woman
TTITLE3=Dark End Of The Street
TTITLE4=My Uncle
TTITLE5=Wheels
TTITLE6=Juanita
TTITLE7=Hot Burrito No. 1
TTITLE8=Hot Burrito No. 2
TTITLE9=Do You Know How It Feels
TTITLE10=Hippie Boy
EXTD=
EXTT0=
EXTT1=
EXTT2=
EXTT3=
EXTT4=
EXTT5=
EXTT6=
EXTT7=
EXTT8=
EXTT9=
EXTT10=
PLAYORDER=
